<svg id="_3171348814432" xmlns="http://www.w3.org/2000/svg" viewBox="0 0 984 466">
  <defs>
    <style>
      .cls-1 {
        fill: #373435;
      }

      .cls-2 {
        fill: #ed1c24;
      }

      .cls-3 {
        fill: #fefefe;
      }
    </style>
  </defs>
  <path id="Path_1" data-name="Path 1" class="cls-1" d="M23,466c-12,0-23-4-23-23V409H10v35c0,9,5,15,13,15,9,0,13-6,13-15V409H46v34C46,461,35,466,23,466Z"/>
  <path id="Path_2" data-name="Path 2" class="cls-1" d="M85,465V439c0-5-3-8-7-8-6,0-9,5-9,8v26H59V426h9v5c3-3,6-7,13-7,8,0,14,5,14,13v28Z"/>
  <path id="Path_3" data-name="Path 3" class="cls-1" d="M107,426h10v39H107Zm5-8a6,6,0,0,1,0-12c3,0,5,3,5,6S114,418,112,418Z"/>
  <path id="Path_4" data-name="Path 4" class="cls-1" d="M145,430c-6,0-8,7-8,15,0,10,2,15,8,15,7,0,9-6,9-15S152,430,145,430Zm0,36c-13,0-19-8-19-21,0-11,6-21,19-21,14,0,19,9,19,21C164,456,159,466,145,466Z"/>
  <path id="Path_5" data-name="Path 5" class="cls-1" d="M200,465V439c0-5-3-8-8-8s-8,5-8,8v26H174V426h9v5a15.148,15.148,0,0,1,13-7c8,0,14,5,14,13v28Z"/>
  <path id="Path_6" data-name="Path 6" class="cls-1" d="M261,430c-6,0-9,7-9,15q0,15,9,15c6,0,9-6,9-15S267,430,261,430Zm0,36c-13,0-19-8-19-21,0-11,6-21,19-21s19,9,19,21C280,456,274,466,261,466Z"/>
  <path id="Path_7" data-name="Path 7" class="cls-1" d="M310,417a5.2,5.2,0,0,0-4-2c-3,0-4,3-4,7v4h8v7h-8v32H292V433h-7v-7h7v-4c0-8,4-14,14-14a18.539,18.539,0,0,1,7,2Z"/>
  <path id="Path_8" data-name="Path 8" class="cls-1" d="M351,418v15h25v8H351v24H340V409h38v9Z"/>
  <path id="Path_9" data-name="Path 9" class="cls-1" d="M388,426h10v39H388Zm5-8a6,6,0,1,1,6-6A6.452,6.452,0,0,1,393,418Z"/>
  <path id="Path_10" data-name="Path 10" class="cls-1" d="M436,465V439c0-5-3-8-8-8s-8,5-8,8v26H410V426h9v5a15.148,15.148,0,0,1,13-7c8,0,14,5,14,13v28Z"/>
  <path id="Path_11" data-name="Path 11" class="cls-1" d="M478,447h-3c-6,0-11,3-11,8,0,2,1,5,6,5s8-4,8-6Zm1,18-1-5c-3,4-6,6-11,6-8,0-13-3-13-11,0-10,12-13,21-14h3v-3c0-5-3-8-7-8-5,0-9,3-11,5l-3-6c2-2,8-5,15-5,11,0,15,5,15,15v20a17.594,17.594,0,0,0,1,6Z"/>
  <path id="Path_12" data-name="Path 12" class="cls-1" d="M524,465V439c0-5-2-8-7-8s-8,5-8,8v26H499V426h9v5c2-3,6-7,12-7,9,0,14,5,14,13v28Z"/>
  <path id="Path_13" data-name="Path 13" class="cls-1" d="M564,466c-14,0-20-9-20-21,0-11,7-21,20-21,7,0,12,2,14,4l-3,7c-2-3-5-5-11-5s-10,6-10,15,4,15,11,15c5,0,8-2,11-5l2,7C576,464,571,466,564,466Z"/>
  <path id="Path_14" data-name="Path 14" class="cls-1" d="M587,426h10v39H587Zm5-8a6,6,0,0,1,0-12c3,0,5,3,5,6S594,418,592,418Z"/>
  <path id="Path_15" data-name="Path 15" class="cls-1" d="M629,447h-3c-6,0-10,3-10,8,0,2,1,5,5,5,6,0,8-4,8-6Zm1,18v-5a14.255,14.255,0,0,1-12,6c-7,0-12-3-12-11,0-10,12-13,20-14h3v-3c0-5-2-8-7-8-4,0-8,3-11,5l-3-6c2-2,8-5,15-5,11,0,16,5,16,15v26Z"/>
  <path id="Path_16" data-name="Path 16" class="cls-1" d="M650,409h10v56H650Z"/>
  <path id="Path_17" data-name="Path 17" class="cls-1" d="M721,466c-18,0-27-14-27-29s11-29,27-29c8,0,14,3,18,7l-4,8c-3-3-6-7-14-7-9,0-16,9-16,21s7,22,16,22c7,0,11-2,16-7l4,8C734,464,730,466,721,466Z"/>
  <path id="Path_18" data-name="Path 18" class="cls-1" d="M766,430c-6,0-9,7-9,15q0,15,9,15c6,0,8-6,8-15S772,430,766,430Zm0,36c-13,0-19-8-19-21,0-11,5-21,19-21,13,0,19,9,19,21C785,456,779,466,766,466Z"/>
  <path id="Path_19" data-name="Path 19" class="cls-1" d="M820,434c-1-1-3-3-6-3a10.021,10.021,0,0,0-10,10v24H794V426h9l1,5c2-3,5-7,11-7,3,0,7,2,8,2Z"/>
  <path id="Path_20" data-name="Path 20" class="cls-1" d="M855,465V439c0-5-2-8-7-8-6,0-9,5-9,8v26H829V426h9l1,5c2-3,6-7,12-7,9,0,14,5,14,13v28Z"/>
  <path id="Path_21" data-name="Path 21" class="cls-1" d="M893,430c-6,0-8,5-8,11h16C901,435,898,430,893,430Zm-8,17c0,10,5,13,10,13a16.56,16.56,0,0,0,12-5l3,7c-3,2-8,4-16,4-15,0-20-10-20-21,0-10,6-21,19-21s18,10,18,19v4Z"/>
  <path id="Path_22" data-name="Path 22" class="cls-1" d="M946,434c-1-1-3-3-6-3-7,0-10,5-10,10v24H920V426h9l1,5c2-3,4-7,11-7,3,0,6,2,7,2Z"/>
  <path id="Path_23" data-name="Path 23" class="cls-1" d="M967,466c-7,0-13-2-15-4l3-7a19.105,19.105,0,0,0,12,5c5,0,7-2,7-4,0-4-2-5-5-6l-7-2c-5-2-9-5-9-12s7-12,16-12c6,0,12,2,14,4l-3,7c-3-3-6-5-11-5s-7,3-7,5c0,3,3,4,5,5l7,2c6,2,10,5,10,12C984,460,979,466,967,466Z"/>
  <path id="Path_24" data-name="Path 24" class="cls-2" d="M802,0H443a81.489,81.489,0,0,0-31,6L201,88c-29,11-49,38-53,69L135,261c-3,24,4,49,20,67a87.911,87.911,0,0,0,64,28H664c27,0,53-12,69-34L870,135a84.237,84.237,0,0,0,7-89A83.773,83.773,0,0,0,802,0Z"/>
  <path id="Path_25" data-name="Path 25" class="cls-3" d="M450,224l-2,22c-5,36,19,63,54,63H608l4-37H506c-12,0-24-8-22-26h0l3-22h0c2-13,11-26,29-26H621l5-36H520a67.056,67.056,0,0,0-37,11H436l3-21c4-28,25-49,39-55L468,65c-27,11-58,45-64,86l-3,22H336l-2,19h0l-10,80H244c-12,0-24-8-22-26h0l2-19,7-54H195l-7,51h0l-3,22c-4,36,19,63,55,63H356l3-25h0l9-74h29l-13,99h35l13-99h22C452,214,451,219,450,224Z"/>
  <path id="Path_26" data-name="Path 26" class="cls-3" d="M840,80a33.293,33.293,0,0,1-33,33c-19,0-34-15-34-33a33.719,33.719,0,0,1,34-34C825,46,840,61,840,80Z"/>
  <path id="Path_27" data-name="Path 27" class="cls-3" d="M666,62c-1,7-7,11-14,10-6,0-11-6-10-13,1-6,7-11,13-10A12.875,12.875,0,0,1,666,62Z"/>
  <path id="Path_28" data-name="Path 28" class="cls-3" d="M741,68a18.051,18.051,0,0,1-20,16c-10-1-17-11-16-21,1-9,11-17,21-15A16.7,16.7,0,0,1,741,68Z"/>
  <path id="Path_29" data-name="Path 29" class="cls-3" d="M717,171a14.172,14.172,0,0,1,0,20c-5,5-14,5-20,0a15.208,15.208,0,0,1,0-20C702,165,711,165,717,171Z"/>
  <path id="Path_30" data-name="Path 30" class="cls-3" d="M767,119c9,8,9,22,1,31-9,8-23,8-31,0-9-9-9-22-1-31C745,110,759,110,767,119Z"/>
</svg>
